<svg class="footer__social-icon" width="32px" height="32px" viewBox="0 0 32 32" version="1.1" xmlns="http://www.w3.org/2000/svg" xmlns:xlink="http://www.w3.org/1999/xlink">
    <g id="Home" stroke="none" stroke-width="1" fill="none" fill-rule="evenodd">
        <g id="Desktop-HD" transform="translate(-1388.000000, -4608.000000)">
            <g id="Group-11" transform="translate(1263.000000, 4609.000000)">
                <g id="google" transform="translate(126.000000, 0.000000)">
                    <path d="M20.2994717,14.0649623 L19.974,14.0649623 L19.974,13.9993019 L19.974,13.7711887 C19.974,13.355717 19.9819245,12.9396792 19.974,12.515717 C19.974,12.4506226 19.8919245,12.3283585 19.8596604,12.3283585 C19.4849434,12.3119434 19.1011698,12.3119434 18.7021132,12.3119434 L18.7021132,13.7711887 L18.7021132,14.0485472 L16.9490943,14.0485472 L16.9490943,14.3666604 C16.9649434,14.676283 16.974,14.9943962 16.9977736,15.3040189 C17.2994717,15.320434 17.6011698,15.3368491 17.918717,15.3368491 C18.1723019,15.3447736 18.4321132,15.3368491 18.7094717,15.3368491 L18.7094717,17.0485472 C19.1424906,17.0406226 19.5415472,17.0485472 19.974,17.0485472 L19.974,15.3368491 L21.6856981,15.3368491 L21.6856981,14.3666604 L21.6856981,14.0649623 L20.2994717,14.0649623 Z M15.3670189,13.9098679 C14.2824906,13.926283 13.1985283,13.926283 12.114,13.926283 C11.8043774,13.926283 11.4868302,13.9098679 11.184,13.926283 C11.1194717,13.926283 11.0215472,13.9993019 11.0215472,14.0406226 C11.0136226,14.6683585 11.0136226,15.2960943 11.0136226,15.9481698 L13.6626792,15.9481698 C13.6389057,16.0783585 13.614566,16.176283 13.5738113,16.265717 C13.1736226,17.4725094 11.9260755,18.0679811 10.5811698,17.8477925 C8.91815094,17.570434 7.89079245,16.0376038 8.19249057,14.3745849 C8.22532075,14.1379811 8.30626415,13.9098679 8.38833962,13.6976038 C8.94249057,12.4913774 10.3038113,11.7572264 11.6498491,12.0594906 C12.1304151,12.1653396 12.5470189,12.3855283 12.8968302,12.7030755 C13.3858868,12.2140189 13.8506038,11.7493019 14.3560755,11.2438302 C14.3232453,11.2194906 14.2666415,11.1781698 14.2338113,11.1379811 C13.0598491,10.1513774 11.7143774,9.78458491 10.2058868,10.0370377 C8.02890566,10.3874151 6.46437736,12.0996792 6.12984906,14.0972264 C5.97475472,14.9451509 6.04041509,15.8502453 6.37437736,16.730434 C7.20645283,18.8423208 9.33362264,20.1385472 11.6164528,19.8860943 C12.7338113,19.7638302 13.7289057,19.3642075 14.4953208,18.5406226 C15.6438113,17.3179811 15.9460755,15.8502453 15.758717,14.2279811 C15.7258868,13.9591132 15.6200377,13.9098679 15.3670189,13.9098679 Z" id="Fill-1" fill="#FFFFFF"></path>
                    <path d="M30.0000566,15 C30.0000566,23.2845283 23.2845849,30 15.0000566,30 C6.7155283,30 5.66037736e-05,23.2845283 5.66037736e-05,15 C5.66037736e-05,6.7154717 6.7155283,0 15.0000566,0 C23.2845849,0 30.0000566,6.7154717 30.0000566,15 Z" id="Stroke-3" stroke="#FFFFFF"></path>
                </g>
            </g>
        </g>
    </g>
</svg>