<svg class="footer__social-icon" width="32px" height="32px" viewBox="0 0 32 32" version="1.1" xmlns="http://www.w3.org/2000/svg" xmlns:xlink="http://www.w3.org/1999/xlink">
    <g id="Home" stroke="none" stroke-width="1" fill="none" fill-rule="evenodd">
        <g id="Desktop-HD" transform="translate(-1304.000000, -4608.000000)">
            <g id="Group-11" transform="translate(1263.000000, 4609.000000)">
                <g id="twitter" transform="translate(42.000000, 0.000000)">
                    <path d="M22.5169811,10.3467736 C21.9701887,10.5833774 21.375283,10.7469623 20.7481132,10.8279057 C21.3916981,10.4446981 21.8807547,9.85771698 22.109434,9.14054717 C21.5145283,9.49092453 20.8460377,9.7439434 20.144717,9.8820566 C19.589434,9.28715094 18.7828302,8.91979245 17.8856604,8.91979245 C16.1903774,8.91979245 14.8041509,10.2816792 14.8041509,11.9531887 C14.8041509,12.197717 14.8449057,12.4258302 14.8935849,12.6460189 C12.3254717,12.5237547 10.0511321,11.3169623 8.53415094,9.47450943 C8.27377358,9.93130189 8.11075472,10.4446981 8.11075472,10.9994151 C8.11075472,12.0590377 8.66490566,12.9884717 9.48,13.5267736 C8.9745283,13.5188491 8.50132075,13.3796038 8.08641509,13.1514906 L8.08641509,13.1922453 C8.08641509,13.5833774 8.16,13.9428113 8.29811321,14.2846981 C8.67339623,15.2390377 9.52981132,15.9562075 10.5650943,16.1605472 C10.2950943,16.233566 10.034717,16.2743208 9.74943396,16.2743208 C9.55415094,16.2743208 9.35830189,16.2499811 9.17037736,16.2086604 C9.57,17.4154528 10.7032075,18.2962075 12.0486792,18.3290377 C10.9884906,19.1441321 9.66792453,19.6252642 8.2245283,19.6252642 C7.97207547,19.6252642 7.73603774,19.6088491 7.48301887,19.5845094 C8.85226415,20.4409245 10.4750943,20.9458302 12.2116981,20.9458302 C17.0303774,20.9458302 20.0054717,17.6113019 20.7803774,14.1460189 C20.9196226,13.5267736 20.9841509,12.9154528 20.9841509,12.3120566 L20.9841509,11.9203585 C21.5796226,11.4884717 22.109434,10.9501698 22.5169811,10.3467736" id="Fill-1" fill="#FFFFFF"></path>
                    <path d="M29.9998868,15 C29.9998868,23.2845283 23.2844151,30 14.9998868,30 C6.71535849,30 -0.000113207547,23.2845283 -0.000113207547,15 C-0.000113207547,6.7154717 6.71535849,0 14.9998868,0 C23.2844151,0 29.9998868,6.7154717 29.9998868,15 Z" id="Stroke-3" stroke="#FFFFFF"></path>
                </g>
            </g>
        </g>
    </g>
</svg>