<svg class="footer__social-icon" width="32px" height="32px" viewBox="0 0 32 32" version="1.1" xmlns="http://www.w3.org/2000/svg" xmlns:xlink="http://www.w3.org/1999/xlink">
    <g id="Home" stroke="none" stroke-width="1" fill="none" fill-rule="evenodd">
        <g id="Desktop-HD" transform="translate(-1346.000000, -4608.000000)">
            <g id="Group-11" transform="translate(1263.000000, 4609.000000)">
                <g id="youtube" transform="translate(84.000000, 0.000000)">
                    <path d="M17.9570157,14.4523652 L13.7963673,16.5931698 L13.7963673,13.2979664 L13.7963673,12.2949823 L15.6801505,13.2742042 L17.9570157,14.4523652 Z M22.9264057,11.5550398 C22.9264057,11.5550398 22.7689413,10.4962423 22.3098632,10.0342617 C21.7263188,9.42970822 21.0669368,9.4214191 20.7751646,9.3816313 C18.6239236,9.23076923 15.397062,9.23076923 15.397062,9.23076923 L15.3802735,9.23076923 C15.3802735,9.23076923 12.1615168,9.23076923 10.0096968,9.3816313 C9.70171503,9.4214191 9.05101672,9.42970822 8.46747232,10.0342617 C8.00897315,10.4962423 7.85092988,11.5550398 7.85092988,11.5550398 C7.85092988,11.5550398 7.69230769,12.7961981 7.69230769,14.0224359 L7.69230769,14.1815871 L7.69230769,15.1923077 C7.69230769,16.4340186 7.85092988,17.6597038 7.85092988,17.6597038 C7.85092988,17.6597038 8.00897315,18.7185013 8.46747232,19.1882184 C9.05101672,19.801061 9.81865547,19.7772989 10.1688979,19.8408488 C11.3944569,19.9602122 15.397062,20 15.397062,20 C15.397062,20 18.6239236,19.9839744 20.7751646,19.8408488 C21.0669368,19.801061 21.7263188,19.801061 22.3098632,19.1882184 C22.7689413,18.7185013 22.9264057,17.6597038 22.9264057,17.6597038 C22.9264057,17.6597038 23.0769231,16.4340186 23.0769231,15.1923077 L23.0769231,14.245137 L23.0769231,14.0224359 C23.0769231,12.7961981 22.9264057,11.5550398 22.9264057,11.5550398 Z" id="Fill-1" fill="#FFFFFF"></path>
                    <path d="M30,15 C30,23.2845283 23.2845283,30 15,30 C6.7154717,30 0,23.2845283 0,15 C0,6.7154717 6.7154717,0 15,0 C23.2845283,0 30,6.7154717 30,15 Z" id="Stroke-3" stroke="#FFFFFF"></path>
                </g>
            </g>
        </g>
    </g>
</svg>