<svg class="menu__social-icon" width="30px" height="30px" viewBox="0 0 30 30" version="1.1" xmlns="http://www.w3.org/2000/svg" xmlns:xlink="http://www.w3.org/1999/xlink">
    <g id="Page-1" stroke="none" stroke-width="1" fill="none" fill-rule="evenodd">
        <g id="menu" transform="translate(-34.000000, -730.000000)">
            <g id="Group-7" transform="translate(34.000000, 730.000000)">
                <g id="Group-3">
                    <g id="facebook">
                        <path d="M30.0001698,15 C30.0001698,23.2845283 23.2846981,30 15.0001698,30 C6.71564151,30 0.000169811321,23.2845283 0.000169811321,15 C0.000169811321,6.7154717 6.71564151,0 15.0001698,0 C23.2846981,0 30.0001698,6.7154717 30.0001698,15" id="Fill-1" fill="#9B9B9B"></path>
                        <path d="M16.1250566,11.9285094 L16.1250566,10.722283 C16.1250566,10.1432264 16.5082642,10.0045472 16.7856226,10.0045472 L18.4729811,10.0045472 L18.4729811,7.4279434 L16.1493962,7.4279434 C13.565434,7.4279434 12.9863774,9.33549057 12.9863774,10.5751132 L12.9863774,11.9285094 L11.4863774,11.9285094 L11.4863774,13.7466226 L11.4863774,14.937 L13.0022264,14.937 L13.0022264,22.4545472 L16.011283,22.4545472 L16.011283,14.937 L18.2363774,14.937 L18.3348679,13.7551132 L18.5143019,11.9285094 L16.1250566,11.9285094 Z" id="Fill-33" fill="#FFFFFF"></path>
                    </g>
                </g>
            </g>
        </g>
    </g>
</svg>