<svg width="51px" height="50px" viewBox="0 0 51 50" version="1.1" xmlns="http://www.w3.org/2000/svg" xmlns:xlink="http://www.w3.org/1999/xlink">
    <defs>
        <polygon id="path-1" points="0.000228358209 0.507462687 50.4826164 0.507462687 50.4826164 49.9997015 0.000228358209 49.9997015"></polygon>
    </defs>
    <g id="Page-1" stroke="none" stroke-width="1" fill="none" fill-rule="evenodd">
        <g id="Mobile-Portrait" transform="translate(-21.000000, -14.000000)">
            <g id="Group">
                <g id="Group-7" transform="translate(21.000000, 14.000000)">
                    <g id="Group-2">
                        <g id="Group-3">-->
                            <g id="Clip-2"></g>
                            <path d="M50.4826164,25.2534328 C50.4826164,38.920597 39.1819299,49.9997015 25.2414224,49.9997015 C11.3009149,49.9997015 0.000228358209,38.920597 0.000228358209,25.2534328 C0.000228358209,11.5870149 11.3009149,0.507164179 25.2414224,0.507164179 C39.1819299,0.507164179 50.4826164,11.5870149 50.4826164,25.2534328" id="Fill-1" fill="#00A6E1"></path>
                        </g>
                        <path d="M30.0701853,27.5565957 C27.9013663,27.5565957 25.6793936,27.2482361 23.7344189,26.3802334 C23.2964627,27.9635415 23.3765675,29.1977213 23.3780648,29.2155113 L20.6305446,29.4319561 C20.619315,29.3052025 20.4081976,26.4751132 21.9144675,23.4641592 C21.9414187,21.9386685 23.1938986,20.7096774 24.7405952,20.7096774 C26.3037619,20.7096774 27.5712147,21.9646122 27.5712147,23.5123404 C27.5712147,23.9044612 27.4888639,24.2773095 27.3413812,24.6168016 C30.9505896,25.2312972 35.1295153,24.3736719 37.4256036,23.7643651 C36.8087217,16.3896774 31.1459854,12 24.2434962,12 C16.9292532,12 11,16.9248593 11,25.1134386 C11,33.1930542 17.2796182,39 25.0250795,39 C32.4291596,39 38.4781958,33.6889499 39,26.1652711 C37.2796182,26.6730268 33.7587498,27.5565957 30.0701853,27.5565957" id="Fill-4" fill="#FFFFFF"></path>
                    </g>
                </g>
            </g>
        </g>
    </g>
</svg>