<svg class="menu__social-icon" width="31px" height="30px" viewBox="0 0 31 30" version="1.1" xmlns="http://www.w3.org/2000/svg" xmlns:xlink="http://www.w3.org/1999/xlink">
    <g id="Page-1" stroke="none" stroke-width="1" fill="none" fill-rule="evenodd">
        <g id="menu" transform="translate(-153.000000, -730.000000)">
            <g id="Group-7" transform="translate(34.000000, 730.000000)">
                <g id="Group-3">
                    <g id="google" transform="translate(119.000000, 0.000000)">
                        <path d="M15.4268868,30 C7.14235849,30 0.426886792,23.2845283 0.426886792,15 C0.426886792,6.7154717 7.14235849,0 15.4268868,0 C23.7114151,0 30.4268868,6.7154717 30.4268868,15 C30.4268868,23.2845283 23.7114151,30 15.4268868,30 Z" id="Fill-13" fill="#9B9B9B"></path>
                        <path d="M20.7263585,14.0649623 L20.4008868,14.0649623 L20.4008868,13.9993019 L20.4008868,13.7711887 C20.4008868,13.355717 20.4088113,12.9396792 20.4008868,12.515717 C20.4008868,12.4506226 20.3188113,12.3283585 20.2865472,12.3283585 C19.9118302,12.3119434 19.5280566,12.3119434 19.129,12.3119434 L19.129,13.7711887 L19.129,14.0485472 L17.3759811,14.0485472 L17.3759811,14.3666604 C17.3918302,14.676283 17.4008868,14.9943962 17.4246604,15.3040189 C17.7263585,15.320434 18.0280566,15.3368491 18.3456038,15.3368491 C18.5991887,15.3447736 18.859,15.3368491 19.1363585,15.3368491 L19.1363585,17.0485472 C19.5693774,17.0406226 19.968434,17.0485472 20.4008868,17.0485472 L20.4008868,15.3368491 L22.1125849,15.3368491 L22.1125849,14.3666604 L22.1125849,14.0649623 L20.7263585,14.0649623 Z M15.7939057,13.9098679 C14.7093774,13.926283 13.6254151,13.926283 12.5408868,13.926283 C12.2312642,13.926283 11.913717,13.9098679 11.6108868,13.926283 C11.5463585,13.926283 11.448434,13.9993019 11.448434,14.0406226 C11.4405094,14.6683585 11.4405094,15.2960943 11.4405094,15.9481698 L14.089566,15.9481698 C14.0657925,16.0783585 14.0414528,16.176283 14.0006981,16.265717 C13.6005094,17.4725094 12.3529623,18.0679811 11.0080566,17.8477925 C9.34503774,17.570434 8.31767925,16.0376038 8.61937736,14.3745849 C8.65220755,14.1379811 8.73371698,13.9098679 8.81522642,13.6976038 C9.36937736,12.4913774 10.7306981,11.7572264 12.0767358,12.0594906 C12.5573019,12.1653396 12.9739057,12.3855283 13.323717,12.7030755 C13.8127736,12.2140189 14.2774906,11.7493019 14.7829623,11.2438302 C14.7501321,11.2194906 14.6935283,11.1781698 14.6606981,11.1379811 C13.4867358,10.1513774 12.1412642,9.78458491 10.6327736,10.0370377 C8.45579245,10.3874151 6.89126415,12.0996792 6.55673585,14.0972264 C6.40164151,14.9451509 6.46730189,15.8502453 6.80126415,16.730434 C7.63333962,18.8423208 9.76050943,20.1385472 12.0433396,19.8860943 C13.1606981,19.7638302 14.1557925,19.3642075 14.9222075,18.5406226 C16.0706981,17.3179811 16.3729623,15.8502453 16.1856038,14.2279811 C16.1527736,13.9591132 16.0469245,13.9098679 15.7939057,13.9098679 Z" id="Fill-35" fill="#FFFFFF"></path>
                    </g>
                </g>
            </g>
        </g>
    </g>
</svg>