<svg class="menu__logo" width="223px" height="52px" viewBox="0 0 223 52" version="1.1" xmlns="http://www.w3.org/2000/svg" xmlns:xlink="http://www.w3.org/1999/xlink">
    <g id="Symbols" stroke="none" stroke-width="1" fill="none" fill-rule="evenodd">
        <g id="top-menu" transform="translate(-19.000000, -19.000000)" fill-rule="nonzero">
            <g id="goooddler_logo_site_1" transform="translate(19.000000, 19.000000)">
                <g id="Group">
                    <circle id="Oval" fill="#00A6E1" cx="25.94" cy="25.82" r="25.25"></circle>
                    <path d="M31.1,27.93 C28.89,27.93 26.63,27.61 24.66,26.72 C24.21,28.35 24.3,29.61 24.3,29.63 L21.51,29.85 C21.5,29.72 21.28,26.81 22.82,23.72 C22.85,22.15 24.12,20.89 25.69,20.89 C27.28,20.89 28.57,22.18 28.57,23.77 C28.57,24.17 28.49,24.56 28.34,24.9 C32.01,25.53 36.26,24.65 38.6,24.02 C37.97,16.44 32.21,11.94 25.19,11.94 C17.75,11.94 11.72,17 11.72,25.41 C11.72,33.71 18.11,39.68 25.99,39.68 C33.52,39.68 39.67,34.22 40.2,26.5 C38.43,27.02 34.85,27.93 31.1,27.93 Z" id="Shape" fill="#FFFFFF"></path>
                </g>
                <g id="Group" transform="translate(80.000000, 15.000000)" fill="#FFFFFF">
                    <path d="M19.79,10.41 C19.79,11.78 19.59,13.01 19.16,14.16 C18.73,15.3 18.1,16.33 17.27,17.25 C16.3,18.31 15.21,19.11 13.98,19.65 C12.75,20.19 11.41,20.48 9.98,20.48 C7.23,20.48 4.92,19.51 3.06,17.59 C1.2,15.65 0.26,13.27 0.26,10.41 C0.26,9.09 0.52,7.81 1.03,6.61 C1.54,5.41 2.29,4.32 3.26,3.38 C4.2,2.46 5.23,1.78 6.35,1.29 C7.49,0.83 8.69,0.6 10.01,0.6 C10.41,0.6 10.81,0.63 11.18,0.66 L11.18,2.52 C10.81,2.46 10.41,2.43 9.98,2.43 C9.09,2.43 8.24,2.57 7.44,2.89 C6.61,3.18 5.87,3.63 5.18,4.21 C4.26,4.98 3.55,5.93 3.04,7.04 C2.5,8.16 2.24,9.3 2.24,10.44 C2.24,12.78 3.01,14.73 4.53,16.3 C6.05,17.87 7.9,18.67 10.13,18.67 C12.3,18.67 14.13,17.87 15.62,16.27 C16.74,15.07 17.45,13.67 17.74,12.07 L13.05,12.07 C12.59,12.1 12.25,12.27 11.93,12.58 C11.53,13.01 11.36,13.58 11.36,14.3 L11.36,14.41 L9.39,14.41 L9.39,14.3 C9.39,13.07 9.76,12.04 10.48,11.24 C11.22,10.47 12.11,10.1 13.17,10.1 L19.58,10.1 L19.58,10.19 L19.81,10.19 L19.81,10.41 L19.79,10.41 Z" id="Shape"></path>
                    <path d="M23.02,10.41 C23.02,9.09 23.28,7.84 23.79,6.61 C24.3,5.41 25.05,4.32 26.02,3.38 C26.91,2.52 27.96,1.78 29.11,1.29 C30.23,0.83 31.45,0.6 32.77,0.6 C34.09,0.6 35.34,0.83 36.49,1.31 C37.63,1.77 38.66,2.45 39.61,3.4 C40.58,4.34 41.33,5.43 41.81,6.6 C42.3,7.77 42.55,9.06 42.55,10.4 C42.55,11.77 42.32,13 41.89,14.15 C41.49,15.29 40.86,16.32 40,17.24 C39.03,18.3 37.94,19.13 36.71,19.67 C35.48,20.21 34.17,20.47 32.74,20.47 C29.99,20.47 27.68,19.5 25.82,17.58 C23.96,15.64 23.02,13.27 23.02,10.41 Z M24.99,10.44 C24.99,12.78 25.73,14.73 27.25,16.3 C28.77,17.87 30.65,18.67 32.85,18.67 C35.02,18.67 36.85,17.87 38.37,16.27 C39.86,14.67 40.6,12.72 40.6,10.38 C40.6,8.24 39.83,6.35 38.28,4.78 C36.74,3.21 34.91,2.44 32.73,2.44 C31.84,2.44 30.99,2.58 30.16,2.9 C29.36,3.19 28.59,3.64 27.9,4.22 C26.98,4.99 26.27,5.94 25.76,7.05 C25.25,8.16 24.99,9.29 24.99,10.44 Z" id="Shape"></path>
                    <path d="M45.89,10.41 C45.89,9.09 46.15,7.84 46.66,6.61 C47.17,5.41 47.92,4.32 48.89,3.38 C49.78,2.52 50.83,1.78 51.98,1.29 C53.1,0.83 54.32,0.6 55.64,0.6 C56.96,0.6 58.21,0.83 59.36,1.31 C60.5,1.77 61.53,2.45 62.48,3.4 C63.45,4.34 64.2,5.43 64.68,6.6 C65.17,7.77 65.42,9.06 65.42,10.4 C65.42,11.77 65.19,13 64.76,14.15 C64.36,15.29 63.73,16.32 62.87,17.24 C61.9,18.3 60.81,19.13 59.58,19.67 C58.35,20.21 57.04,20.47 55.61,20.47 C52.86,20.47 50.55,19.5 48.69,17.58 C46.83,15.64 45.89,13.27 45.89,10.41 Z M47.86,10.44 C47.86,12.78 48.6,14.73 50.12,16.3 C51.64,17.87 53.52,18.67 55.72,18.67 C57.89,18.67 59.72,17.87 61.24,16.27 C62.73,14.67 63.47,12.72 63.47,10.38 C63.47,8.24 62.7,6.35 61.15,4.78 C59.61,3.21 57.78,2.44 55.6,2.44 C54.71,2.44 53.86,2.58 53.03,2.9 C52.23,3.19 51.46,3.64 50.77,4.22 C49.85,4.99 49.14,5.94 48.63,7.05 C48.12,8.15 47.86,9.29 47.86,10.44 Z" id="Shape"></path>
                    <path d="M69.24,1.4 L77.3,1.4 C78.79,1.4 80.05,1.54 81.07,1.83 C82.1,2.14 82.99,2.63 83.76,3.29 C84.88,4.21 85.7,5.32 86.3,6.64 C86.93,7.98 87.22,9.41 87.22,10.93 C87.22,12.62 86.91,14.13 86.22,15.53 C85.56,16.9 84.62,18.05 83.42,18.93 C82.59,19.5 81.73,19.9 80.79,20.13 C79.87,20.39 78.42,20.5 76.47,20.5 L69.24,20.5 L69.24,1.4 Z M71.1,3.23 L71.1,18.7 L77.62,18.7 C80.05,18.7 81.94,18.01 83.25,16.67 C84.57,15.3 85.19,13.35 85.19,10.87 C85.19,9.61 84.99,8.47 84.53,7.41 C84.07,6.35 83.44,5.47 82.61,4.72 C81.98,4.21 81.29,3.8 80.52,3.58 C79.75,3.35 78.63,3.24 77.17,3.24 L71.1,3.24 L71.1,3.23 Z" id="Shape"></path>
                    <path d="M106.07,1.37 L106.07,20.47 L104.1,20.47 L104.1,18.01 C104.04,18.1 103.96,18.18 103.87,18.27 C102.44,19.7 100.52,20.5 98.49,20.5 C96.46,20.5 94.54,19.7 93.11,18.27 C91.68,16.84 90.88,14.95 90.88,12.92 C90.88,10.89 91.68,8.97 93.11,7.54 C94.54,6.11 96.46,5.31 98.49,5.31 C100.52,5.31 102.44,6.11 103.87,7.54 C103.96,7.63 104.04,7.71 104.1,7.8 L104.1,1.37 L106.07,1.37 Z M104.1,12.92 C104.1,9.8 101.58,7.29 98.5,7.29 C95.42,7.29 92.87,9.81 92.87,12.92 C92.87,16.01 95.41,18.52 98.5,18.52 C101.59,18.52 104.1,16.01 104.1,12.92 Z" id="Shape"></path>
                    <polygon id="Shape" points="111.87 20.47 109.9 20.47 109.9 1.43 111.87 1.43"></polygon>
                    <path d="M130.8,12.75 L130.77,12.75 L130.77,13.49 L118.05,13.49 C118.14,14.75 118.68,15.95 119.62,16.86 C120.62,17.89 121.99,18.46 123.42,18.46 C124.54,18.46 125.56,18.26 126.39,17.86 C127.42,17.35 128.13,16.57 128.59,15.46 L130.42,16.2 C129.3,18.92 126.79,20.43 123.41,20.43 C121.44,20.43 119.61,19.66 118.21,18.26 C116.81,16.86 116.04,15 116.04,13.03 L116.1,13.03 L116.1,12.74 L116.01,12.74 C116.01,12.4 116.04,12.05 116.1,11.71 L116.1,11.51 L116.13,11.51 C116.39,9.99 117.07,8.62 118.19,7.51 C119.59,6.14 121.42,5.37 123.39,5.37 C125.36,5.37 127.22,6.14 128.62,7.51 C129.71,8.63 130.42,10 130.68,11.51 L130.77,11.51 L130.77,12.08 C130.77,12.32 130.8,12.52 130.8,12.75 Z M128.68,11.52 C128.45,10.55 127.97,9.63 127.22,8.92 C126.22,7.92 124.85,7.35 123.39,7.35 C121.96,7.35 120.59,7.92 119.59,8.92 C118.85,9.63 118.36,10.55 118.13,11.52 L128.68,11.52 Z" id="Shape"></path>
                    <path d="M142.26,5.35 L142.26,7.32 C140.74,7.32 139.34,7.92 138.29,8.98 C137.23,10.04 136.63,11.44 136.63,12.95 L136.63,20.47 L134.66,20.47 L134.66,5.32 L136.63,5.32 L136.63,7.84 L136.89,7.58 C138.31,6.15 140.23,5.35 142.26,5.35 Z" id="Shape"></path>
                </g>
            </g>
        </g>
    </g>
</svg>