<svg class="menu__social-icon" width="30px" height="30px" viewBox="0 0 30 30" version="1.1" xmlns="http://www.w3.org/2000/svg" xmlns:xlink="http://www.w3.org/1999/xlink">
    <g id="Page-1" stroke="none" stroke-width="1" fill="none" fill-rule="evenodd">
        <g id="menu" transform="translate(-73.000000, -730.000000)">
            <g id="Group-7" transform="translate(34.000000, 730.000000)">
                <g id="Group-3">
                    <g id="twitter" transform="translate(39.000000, 0.000000)">
                        <path d="M15,30 C6.7154717,30 0,23.2845283 0,15 C0,6.7154717 6.7154717,0 15,0 C23.2845283,0 30,6.7154717 30,15 C30,23.2845283 23.2845283,30 15,30 Z" id="Fill-13" fill="#9B9B9B"></path>
                        <path d="M22.9995283,10.3467736 C22.4527358,10.5833774 21.8578302,10.7469623 21.2306604,10.8279057 C21.8742453,10.4446981 22.3633019,9.85771698 22.5919811,9.14054717 C21.9970755,9.49092453 21.3285849,9.7439434 20.6272642,9.8820566 C20.0719811,9.28715094 19.2653774,8.91979245 18.3682075,8.91979245 C16.6729245,8.91979245 15.2866981,10.2816792 15.2866981,11.9531887 C15.2866981,12.197717 15.3274528,12.4258302 15.3761321,12.6460189 C12.8080189,12.5237547 10.5336792,11.3169623 9.01669811,9.47450943 C8.75632075,9.93130189 8.59330189,10.4446981 8.59330189,10.9994151 C8.59330189,12.0590377 9.14745283,12.9884717 9.96254717,13.5267736 C9.45707547,13.5188491 8.98386792,13.3796038 8.56896226,13.1514906 L8.56896226,13.1922453 C8.56896226,13.5833774 8.64254717,13.9428113 8.78066038,14.2846981 C9.1559434,15.2390377 10.0123585,15.9562075 11.0476415,16.1605472 C10.7776415,16.233566 10.5172642,16.2743208 10.2319811,16.2743208 C10.0366981,16.2743208 9.84084906,16.2499811 9.65292453,16.2086604 C10.0525472,17.4154528 11.1857547,18.2962075 12.5312264,18.3290377 C11.4710377,19.1441321 10.1504717,19.6252642 8.70707547,19.6252642 C8.45462264,19.6252642 8.21858491,19.6088491 7.96556604,19.5845094 C9.33481132,20.4409245 10.9576415,20.9458302 12.6942453,20.9458302 C17.5129245,20.9458302 20.4880189,17.6113019 21.2629245,14.1460189 C21.4021698,13.5267736 21.4666981,12.9154528 21.4666981,12.3120566 L21.4666981,11.9203585 C22.0621698,11.4884717 22.5919811,10.9501698 22.9995283,10.3467736" id="Fill-39" fill="#FFFFFF"></path>
                    </g>
                </g>
            </g>
        </g>
    </g>
</svg>