<svg class="menu__social-icon" width="31px" height="30px" viewBox="0 0 31 30" version="1.1" xmlns="http://www.w3.org/2000/svg" xmlns:xlink="http://www.w3.org/1999/xlink">
    <g id="Page-1" stroke="none" stroke-width="1" fill="none" fill-rule="evenodd">
        <g id="menu" transform="translate(-113.000000, -730.000000)">
            <g id="Group-7" transform="translate(34.000000, 730.000000)">
                <g id="Group-3">
                    <g id="youtube" transform="translate(79.000000, 0.000000)">
                        <path d="M30.7473585,15 C30.7473585,23.2845283 24.0318868,30 15.7473585,30 C7.46283019,30 0.747358491,23.2845283 0.747358491,15 C0.747358491,6.7154717 7.46283019,0 15.7473585,0 C24.0318868,0 30.7473585,6.7154717 30.7473585,15" id="Fill-9" fill="#9B9B9B"></path>
                        <path d="M18.263,14.7661698 L14.1948868,16.959 L14.1948868,13.583717 L14.1948868,12.5563585 L16.0367736,13.5593774 L18.263,14.7661698 Z M23.1218679,11.798434 C23.1218679,11.798434 22.9679057,10.7139057 22.5190377,10.2406981 C21.9484717,9.62145283 21.3037547,9.61296226 21.0184717,9.57220755 C18.9150755,9.41767925 15.7599811,9.41767925 15.7599811,9.41767925 L15.743566,9.41767925 C15.743566,9.41767925 12.5963962,9.41767925 10.492434,9.57220755 C10.1913019,9.61296226 9.55507547,9.62145283 8.98450943,10.2406981 C8.53620755,10.7139057 8.38167925,11.798434 8.38167925,11.798434 C8.38167925,11.798434 8.22658491,13.0697547 8.22658491,14.3257925 L8.22658491,14.4888113 L8.22658491,15.5240943 C8.22658491,16.7959811 8.38167925,18.0514528 8.38167925,18.0514528 C8.38167925,18.0514528 8.53620755,19.1359811 8.98450943,19.6171132 C9.55507547,20.2448491 10.3056415,20.2205094 10.6480943,20.2856038 C11.8463962,20.4078679 15.7599811,20.4486226 15.7599811,20.4486226 C15.7599811,20.4486226 18.9150755,20.4322075 21.0184717,20.2856038 C21.3037547,20.2448491 21.9484717,20.2448491 22.5190377,19.6171132 C22.9679057,19.1359811 23.1218679,18.0514528 23.1218679,18.0514528 C23.1218679,18.0514528 23.2690377,16.7959811 23.2690377,15.5240943 L23.2690377,14.5539057 L23.2690377,14.3257925 C23.2690377,13.0697547 23.1218679,11.798434 23.1218679,11.798434 Z" id="Fill-37" fill="#FFFFFF"></path>
                    </g>
                </g>
            </g>
        </g>
    </g>
</svg>